# xmcd
#
# Track frame offsets:
#	150
#	16185
#	39032
#	61205
#	82355
#	99940
#	119857
#	120557
#	144735
#	163862
#	182177
#	201560
#	222262
#	243560
#
# Disc length: 3530 seconds
#
# Revision: 1
# Processed by: cddbd v1.5.1PL0 Copyright (c) Steve Scherf et al.
# Submitted via: MusicWizard 7.0.2
#
DISCID=d00dc80e
DTITLE=Sir Mix-A-Lot - Swass
DYEAR=1988
DGENRE=Freestyle - Bass - Electro /Old School
TTITLE0=Buttermilk Biscuits (Keep On Square Dancin')
TTITLE1=Posse' On Broadway
TTITLE2=Gold
TTITLE3=Swass
TTITLE4=Rippin' (Duet With Kid Sensation)
TTITLE5=Mall Dropper
TTITLE6=Interlude
TTITLE7=Hip Hop Soldier
TTITLE8=Iron Man (Featuring Metal Chruch)
TTITLE9=Bremelo
TTITLE10=Square Dance Rap
TTITLE11=Romantic Interlude
TTITLE12=F The Bs
TTITLE13=Iron Man (True Metal Meltdown Mix)
EXTD=
EXTT0=
EXTT1=
EXTT2=
EXTT3=
EXTT4=
EXTT5=
EXTT6=
EXTT7=
EXTT8=
EXTT9=
EXTT10=
EXTT11=
EXTT12=
EXTT13=
PLAYORDER=
